<?xml version="1.0" encoding="UTF-8" standalone="no" ?>
<!DOCTYPE svg PUBLIC "-//W3C//DTD SVG 1.1//EN" "http://www.w3.org/Graphics/SVG/1.1/DTD/svg11.dtd">
<svg xmlns="http://www.w3.org/2000/svg" xmlns:xlink="http://www.w3.org/1999/xlink" version="1.1" width="1280" height="1024" viewBox="0 0 1280 1024" xml:space="preserve">
<desc>Created with Fabric.js 5.3.0</desc>
<defs>
</defs>
<g transform="matrix(1 0 0 1 640 512)" id="background-logo"  >
<rect style="stroke: none; stroke-width: 0; stroke-dasharray: none; stroke-linecap: butt; stroke-dashoffset: 0; stroke-linejoin: miter; stroke-miterlimit: 4; fill: rgb(0,0,0); fill-rule: nonzero; opacity: 1;"  paint-order="stroke"  x="-640" y="-512" rx="0" ry="0" width="1280" height="1024" />
</g>
<g transform="matrix(3.8508207967487915 0 0 3.8508207967487915 639.8078254847646 511.6412742382272)" id="logo-logo"  >
<g style=""  paint-order="stroke"   >
		<g transform="matrix(1.1687298969513473 0 0 1.168729896951347 0 -2.842171e-14)"  >
<g style=""  paint-order="stroke"   >
		<g transform="matrix(1 0 0 1 0 0)"  >
<path style="stroke: none; stroke-width: 1; stroke-dasharray: none; stroke-linecap: butt; stroke-dashoffset: 0; stroke-linejoin: miter; stroke-miterlimit: 4; fill: rgb(255,255,255); fill-rule: nonzero; opacity: 1;"  paint-order="stroke"  transform=" translate(-88.685, -88.685)" d="M 77.4 167.08 L 76.09 174.52 C 76.00509345079656 175.05642169680527 75.7056864704387 175.53524825078867 75.26058466544548 175.84644230936445 C 74.81548286045225 176.15763636794023 74.26296385848659 176.27443603041183 73.73 176.17000000000002 L 72.9 176 C 72.36357830319473 175.91509345079658 71.88475174921133 175.6156864704387 71.57355769063557 175.17058466544546 C 71.26236363205979 174.72548286045225 71.14556396958817 174.17296385848658 71.25 173.64 L 72.56 166.20999999999998 C 72.64248909532543 165.67174681611834 72.94088387235426 165.19039916344417 73.38627580855335 164.87711500493126 C 73.83166774475245 164.56383084641834 74.38554489254369 164.44569909434617 74.92 164.54999999999998 L 75.75 164.7 C 76.2906576293973 164.78448379539367 76.77308587974126 165.08680896182778 77.08486286519556 165.53652364387702 C 77.39663985064988 165.98623832592628 77.51053249125445 166.54406086886036 77.4 167.08 Z M 81.4 132.68 L 80.57000000000001 132.53 C 80.03703614151343 132.42556396958818 79.48451713954776 132.5423636320598 79.03941533455453 132.85355769063557 C 78.5943135295613 133.16475174921135 78.29490654920345 133.64357830319474 78.21000000000001 134.18 L 74.21000000000001 157.07 C 74.10556396958818 157.6029638584866 74.2223636320598 158.15548286045225 74.53355769063558 158.60058466544547 C 74.84475174921134 159.0456864704387 75.32357830319474 159.34509345079658 75.86000000000001 159.43 L 76.68 159.58 C 77.77334137133485 159.73826580287883 78.79688343645509 159.0059038080083 79 157.92 L 83 135.04 C 83.10529525165359 134.5143940604702 82.9951890683198 133.9685191268062 82.69438063522115 133.52482668798567 C 82.39357220212248 133.08113424916513 81.92724274806947 132.77676661768365 81.4 132.68 Z M 101.7 12.73 L 102.52 12.870000000000001 C 103.05296385848658 12.97443603041183 103.60548286045224 12.857636367940202 104.05058466544547 12.546442309364432 C 104.49568647043868 12.23524825078866 104.79509345079656 11.756421696805276 104.88 11.22 L 106.19999999999999 3.7800000000000002 C 106.3043009056538 3.245544892543698 106.18616915358164 2.691667744752454 105.87288499506872 2.2462758085533556 C 105.55960083655579 1.8008838723542568 105.07825318388163 1.5024890953254322 104.53999999999999 1.4200000000000004 L 103.72 1.2800000000000002 C 103.18703614151342 1.175563969588171 102.63451713954775 1.2923636320597982 102.18941533455452 1.603557690635569 C 101.74431352956131 1.91475174921134 101.44490654920344 2.393578303194724 101.36 2.9299999999999997 L 100 10.36 C 99.91049429206204 10.899804255047982 100.03942573158669 11.453040031515897 100.35835111553817 11.897659537377683 C 100.67727649948966 12.342279043239467 101.15998944361017 12.64174749573567 101.7 12.73 Z M 96.05 44.730000000000004 L 96.86999999999999 44.870000000000005 C 97.40296385848657 44.97443603041183 97.95548286045224 44.85763636794021 98.40058466544546 44.54644230936444 C 98.84568647043868 44.235248250788665 99.14509345079655 43.75642169680528 99.22999999999999 43.220000000000006 L 103.22999999999999 20.340000000000007 C 103.32914841462446 19.815930383804364 103.21485904736842 19.273967423583937 102.91253242289133 18.834561025275622 C 102.61020579841426 18.395154626967308 102.14488989398225 18.094709925231207 101.62 18 L 100.79 17.86 C 100.25703614151342 17.75556396958817 99.70451713954776 17.8723636320598 99.25941533455453 18.183557690635567 C 98.81431352956132 18.49475174921134 98.51490654920345 18.973578303194724 98.43 19.509999999999998 L 94.43 42.4 C 94.32207153805238 42.93001720206333 94.43342185566884 43.48114979082959 94.73865357579449 43.927692492494906 C 95.04388529592015 44.37423519416022 95.51696855913724 44.67810728846528 96.05 44.77 Z M 62.75 161.31 L 62 161 C 61.494014362262156 160.80458638935497 60.93035832133425 160.8230669287259 60.43825962227528 161.0512046397839 C 59.94616092321631 161.27934235084186 59.567827957645505 161.69756935854505 59.39 162.21 L 56.81 169.31 C 56.58741772397076 169.82252753518532 56.58939479582671 170.40479937426593 56.81545241731802 170.91580357746898 C 57.04151003880933 171.42680778067202 57.471032496676735 171.81994244155428 58 172 L 58.79 172.29 C 59.304082348395426 172.47565722658808 59.87175034629943 172.44282794889304 60.3610032263113 172.19914601251648 C 60.850256106323165 171.95546407613992 61.218461498077005 171.52216336439147 61.38 171 L 64 163.93 C 64.18241463425191 163.41683811650273 64.15313397865155 162.8521811843175 63.91861977766628 162.36063941905235 C 63.684105576681006 161.8690976537872 63.263635439633475 161.49107692458247 62.75 161.31 Z M 73.88 130.74 L 73.08999999999999 130.45000000000002 C 72.58271173261404 130.2550324979095 72.01792436967706 130.27490104361138 71.52559063127457 130.5050340554317 C 71.03325689287209 130.73516706725204 70.6557748941352 131.15574626915247 70.47999999999999 131.67000000000002 L 62.47999999999999 153.51000000000002 C 62.28503249790946 154.01728826738596 62.30490104361136 154.58207563032295 62.53503405543167 155.07440936872544 C 62.765167067251994 155.56674310712793 63.185746269152446 155.94422510586483 63.69999999999999 156.12000000000003 L 64.47999999999999 156.41000000000003 C 65.54022051436024 156.7928129989934 66.71060979010201 156.24782257288464 67.1 155.19000000000003 L 75.03999999999999 133.35000000000002 C 75.23780117909399 132.85046905046593 75.22630432487854 132.29236165695332 75.00809928520457 131.80140031768687 C 74.78989424553059 131.31043897842042 74.3833330413151 130.9279157404634 73.88 130.74 Z M 114.7 16.13 L 115.48 16.419999999999998 C 115.98847591860958 16.618193259303347 116.55585843653947 16.59999482055879 117.05058844236417 16.369624359831253 C 117.5453184481889 16.139253899103714 117.92442334661783 15.716721556185002 118.10000000000001 15.199999999999996 L 120.68 8.109999999999998 C 121.06281299899338 7.049779485639744 120.51782257288463 5.8793902098979824 119.46000000000001 5.4899999999999975 L 118.67 5.209999999999997 C 118.16271173261406 5.015032497909478 117.59792436967707 5.034901043611373 117.10559063127458 5.2650340554316895 C 116.6132568928721 5.495167067252007 116.23577489413522 5.915746269152461 116.06 6.429999999999996 L 113.48 13.519999999999996 C 113.28503249790948 14.027288267385945 113.30490104361138 14.59207563032293 113.5350340554317 15.084409368725414 C 113.76516706725201 15.576743107127896 114.18574626915246 15.954225105864788 114.7 16.13 Z M 103.57 46.71 L 104.36 47 C 104.87176706993499 47.1901006953866 105.43822178274328 47.16821755900948 105.93379763720652 46.939201444446915 C 106.42937349166978 46.710185329884354 106.81313016974163 46.29295562653656 107 45.78 L 115 23.94 C 115.19496750209052 23.432711732614052 115.17509895638862 22.86792436967707 114.94496594456831 22.375590631274587 C 114.714832932748 21.883256892872105 114.29425373084754 21.50577489413521 113.78 21.330000000000002 L 112.99 21.040000000000003 C 112.48271173261405 20.845032497909482 111.91792436967707 20.86490104361138 111.42559063127457 21.095034055431697 C 110.9332568928721 21.325167067252014 110.55577489413521 21.745746269152466 110.38 22.26 L 102.38 44.1 C 102.18366256210423 44.60339220471096 102.19935835147372 45.16480741177288 102.42351433920527 45.65644365377231 C 102.6476703269368 46.148079895771744 103.06121211053339 46.52810171849257 103.57 46.71 Z M 50.56999999999999 155.71 L 49.839999999999996 155.29000000000002 C 49.37442040607983 154.98758469288597 48.804086492048725 154.89230044739816 48.2654875459789 155.0269501839156 C 47.726888599909074 155.16159992043305 47.268492438346485 155.5140666848193 47 156 L 43.22 162.53 C 42.9374726723369 162.9965968936867 42.857780184776665 163.55834555000374 42.99938402139042 164.08511182220687 C 43.140987858004166 164.61187809441003 43.49160072969464 165.05795326705748 43.97 165.32 L 44.69 165.73999999999998 C 45.156596893686704 166.02252732766308 45.718345550003725 166.10221981522332 46.24511182220687 165.96061597860955 C 46.77187809441003 165.8190121419958 47.217953267057496 165.46839927030533 47.48 164.98999999999998 L 51.25 158.45 C 51.52277721244535 157.9917193916799 51.60122063405332 157.44347327920028 51.46789929677803 156.92708781792274 C 51.33457795950274 156.41070235664523 51.00053559762653 155.9689525737197 50.54 155.7 Z M 66.83999999999999 127.53 L 66.10999999999999 127.11 C 65.64424362345065 126.83076576269512 65.08496241757896 126.75293102708089 64.56065994661034 126.89437953543575 C 64.03635747564174 127.03582804379059 63.59211350386007 127.38439798920338 63.329999999999984 127.86 L 51.68 148 C 51.39668396465398 148.46536068516468 51.31547782122888 149.02616180937474 51.455152518284706 149.5527731671933 C 51.59482721534052 150.07938452501187 51.943292505615474 150.52622261662762 52.42 150.79 L 53.15 151.20999999999998 C 53.615756376549335 151.48923423730486 54.17503758242103 151.5670689729191 54.69934005338964 151.42562046456425 C 55.223642524358254 151.2841719562094 55.667886496139914 150.9356020107966 55.93 150.45999999999998 L 67.55 130.33999999999997 C 67.84330876456123 129.8722101284406 67.93018241117701 129.30397616262394 67.7900396647624 128.76991866953043 C 67.64989691834778 128.23586117643688 67.29520712326627 127.7834984683706 66.81 127.52 Z M 126.94 21.760000000000005 L 127.66 22.180000000000007 C 128.63809013537804 22.739127709039106 129.88408977795538 22.404181568561324 130.45 21.430000000000007 L 134.22 14.890000000000008 C 134.50002852363343 14.425475995163982 134.5793777530752 13.86713700111438 134.43985606430326 13.342987954106333 C 134.30033437553132 12.818838907098286 133.95390845674288 12.373835743872547 133.48 12.110000000000008 L 132.75 11.690000000000008 C 132.28547599516398 11.409971476366584 131.72713700111436 11.33062224692482 131.20298795410633 11.470143935696747 C 130.67883890709828 11.609665624468674 130.23383574387253 11.956091543257111 129.97 12.43000000000001 L 126.16 19 C 125.89051734381965 19.46315658113134 125.81816184907974 20.015080695361295 125.95915323685944 20.532049117220154 C 126.10014462463913 21.04901753907901 126.44268929348564 21.487787063239942 126.91 21.75 Z M 110.64 49.93 L 111.36 50.339999999999996 C 111.8253606851647 50.62331603534602 112.38616180937474 50.70452217877112 112.91277316719331 50.5648474817153 C 113.43938452501187 50.42517278465948 113.88622261662765 50.07670749438452 114.15 49.599999999999994 L 125.77000000000001 29.469999999999995 C 126.04923423730489 29.00424362345066 126.12706897291912 28.44496241757897 125.98562046456428 27.920659946610357 C 125.84417195620942 27.396357475641743 125.49560201079663 26.95211350386008 125.02000000000001 26.689999999999994 L 124.30000000000001 26.269999999999992 C 123.32451628972628 25.709174844167748 122.07931102127219 26.03944434189392 121.51 27.00999999999999 L 109.89 47.14 C 109.6074726723369 47.60659689368671 109.52778018477666 48.16834555000373 109.66938402139041 48.695111822206876 C 109.81098785800417 49.22187809441003 110.16160072969464 49.6679532670575 110.64 49.93 Z M 39.49 148.05 L 38.85 147.51000000000002 C 37.98462400181945 146.78707731712942 36.69786320478752 146.89877530298287 35.97 147.76000000000002 L 31.119999999999997 153.55 C 30.76281384508717 153.95953613159224 30.587650997062127 154.49678581575927 30.634808380713515 155.03815258007722 C 30.681965764364907 155.5795193443952 30.947383081481277 156.07839096539658 31.369999999999997 156.42000000000002 L 32 157 C 32.86537599818055 157.7229226828706 34.152136795212485 157.61122469701715 34.88 156.75 L 39.730000000000004 150.96 C 40.101413936537966 150.54994369560671 40.28637477733392 150.00435301816032 40.240899645079956 149.45296703958104 C 40.195424512825994 148.9015810610018 39.923576546116934 148.39366533675167 39.49 148.05 Z M 60.4 123.13 L 59.76 122.58999999999999 C 59.35046386840776 122.23281384508716 58.81321418424074 122.05765099706213 58.27184741992278 122.10480838071351 C 57.730480655604815 122.1519657643649 57.23160903460343 122.41738308148128 56.89 122.83999999999999 L 42 140.64 C 41.642813845087176 141.04953613159222 41.46765099706213 141.58678581575924 41.51480838071352 142.1281525800772 C 41.561965764364906 142.66951934439518 41.82738308148128 143.16839096539655 42.25 143.51 L 42.89 144.04999999999998 C 43.755375998180554 144.7729226828706 45.042136795212485 144.66122469701713 45.77 143.79999999999998 L 60.65 126 C 61.00718615491282 125.59046386840775 61.18234900293787 125.05321418424074 61.13519161928648 124.51184741992277 C 61.08803423563509 123.97048065560482 60.82261691851872 123.47160903460343 60.4 123.13 Z M 138 29.4 L 138.64 29.93 C 139.04953613159222 30.287186154912828 139.58678581575924 30.462349002937874 140.1281525800772 30.41519161928648 C 140.66951934439518 30.36803423563509 141.16839096539655 30.10261691851872 141.51 29.68 L 146.35999999999999 23.9 C 146.7171861549128 23.49046386840776 146.89234900293786 22.953214184240743 146.84519161928645 22.41184741992278 C 146.79803423563507 21.870480655604815 146.5326169185187 21.371609034603427 146.10999999999999 21.029999999999998 L 145.47 20.49 C 145.06046386840777 20.13281384508717 144.52321418424074 19.957650997062125 143.9818474199228 20.004808380713516 C 143.4404806556048 20.05196576436491 142.94160903460343 20.317383081481278 142.6 20.74 L 137.75 26.52 C 137.389571430809 26.930017157382427 137.2124111132809 27.46954880089163 137.25962200114338 28.013418229067415 C 137.30683288900588 28.557287657243197 137.57431144977755 29.05822217589999 138 29.4 Z M 117 54.32 L 117.64 54.86 C 118.50537599818055 55.58292268287061 119.79213679521249 55.47122469701714 120.52 54.61 L 135.45 36.81 C 135.81042856919098 36.399982842617575 135.9875888867191 35.86045119910837 135.9403779988566 35.316581770932586 C 135.8931671109941 34.772712342756805 135.62568855022243 34.27177782410001 135.2 33.93 L 134.56 33.4 C 134.15046386840777 33.042813845087174 133.61321418424075 32.86765099706213 133.0718474199228 32.91480838071352 C 132.5304806556048 32.961965764364905 132.03160903460343 33.22738308148128 131.69 33.65 L 116.75 51.45 C 116.39281384508718 51.85953613159224 116.21765099706214 52.39678581575926 116.26480838071352 52.93815258007722 C 116.31196576436491 53.479519344395186 116.57738308148129 53.97839096539657 117 54.32 Z M 29.93 138.6 L 29.4 138 C 29.05822217589999 137.57431144977755 28.557287657243197 137.30683288900588 28.013418229067412 137.25962200114338 C 27.46954880089163 137.2124111132809 26.930017157382423 137.389571430809 26.52 137.75 L 20.74 142.6 C 20.317383081481278 142.94160903460343 20.05196576436491 143.4404806556048 20.004808380713516 143.9818474199228 C 19.957650997062125 144.52321418424074 20.13281384508717 145.06046386840777 20.49 145.47 L 21.029999999999998 146.10999999999999 C 21.371609034603427 146.5326169185187 21.870480655604815 146.79803423563507 22.41184741992278 146.84519161928645 C 22.953214184240743 146.89234900293786 23.49046386840776 146.7171861549128 23.9 146.35999999999999 L 29.68 141.51 C 30.115019436957933 141.16781762601505 30.3887903368089 140.66066402872178 30.436164927675257 140.10922379103738 C 30.483539518541612 139.557783553353 30.300281577514536 139.0113663099362 29.93 138.6 Z M 54.86 117.67999999999999 L 54.32 117.03999999999999 C 53.97839096539657 116.61738308148128 53.479519344395186 116.3519657643649 52.93815258007722 116.30480838071351 C 52.39678581575926 116.25765099706213 51.85953613159224 116.43281384508717 51.45 116.78999999999999 L 33.650000000000006 131.73 C 33.22592340575507 132.07014938171892 32.9585867145848 132.5682757447013 32.90953811428257 133.10969683265276 C 32.86048951398035 133.65111792060424 33.033955688591995 134.18917764424978 33.39000000000001 134.6 L 33.93000000000001 135.23999999999998 C 34.27177782410002 135.66568855022243 34.77271234275681 135.9331671109941 35.31658177093259 135.9803779988566 C 35.860451199108375 136.0275888867191 36.39998284261758 135.85042856919097 36.81000000000001 135.48999999999998 L 54.610000000000014 120.55999999999997 C 55.47122469701713 119.83213679521245 55.58292268287059 118.54537599818055 54.86 117.68 Z M 147.51 38.849999999999994 L 148.04999999999998 39.489999999999995 C 148.39160903460342 39.912616918518715 148.8904806556048 40.17803423563509 149.43184741992278 40.22519161928648 C 149.97321418424073 40.272349002937865 150.51046386840775 40.09718615491282 150.92 39.739999999999995 L 156.70999999999998 34.88999999999999 C 157.13257410239802 34.54580579968647 157.400693727189 34.04750767751518 157.45511027042755 33.505218677655364 C 157.50952681366607 32.96292967779555 157.34576045613684 32.42129351587585 157 32 L 156.46 31.36 C 156.11839096539657 30.93738308148128 155.6195193443952 30.67196576436491 155.07815258007722 30.624808380713517 C 154.53678581575926 30.57765099706213 153.99953613159224 30.75281384508717 153.59 31.11 L 147.76 36 C 146.91796435622922 36.7252070786359 146.8070815880591 37.98927063577536 147.51 38.85 Z M 122.59 59.76 L 123.13000000000001 60.4 C 123.47160903460345 60.82261691851872 123.97048065560483 61.08803423563509 124.51184741992279 61.13519161928648 C 125.05321418424076 61.18234900293787 125.59046386840777 61.00718615491282 126.00000000000001 60.65 L 143.8 45.72 C 144.66122469701716 44.99213679521248 144.77292268287061 43.70537599818055 144.05 42.839999999999996 L 143.51000000000002 42.199999999999996 C 143.16839096539658 41.777383081481275 142.6695193443952 41.5119657643649 142.12815258007723 41.464808380713514 C 141.58678581575927 41.417650997062125 141.04953613159225 41.59281384508717 140.64000000000001 41.949999999999996 L 122.84000000000002 56.88999999999999 C 122.41738308148129 57.23160903460342 122.15196576436492 57.73048065560481 122.10480838071352 58.27184741992277 C 122.05765099706214 58.813214184240735 122.23281384508718 59.35046386840776 122.59 59.76 Z M 22.17 127.63 L 21.75 126.91 C 21.487953267057502 126.43160072969464 21.041878094410027 126.08098785800416 20.51511182220688 125.93938402139041 C 19.98834555000373 125.79778018477666 19.426596893686707 125.87747267233689 18.96 126.16 L 12.420000000000002 129.94 C 11.946091543257102 130.20383574387253 11.599665624468665 130.64883890709828 11.46014393569674 131.17298795410633 C 11.320622246924813 131.69713700111438 11.399971476366577 132.25547599516398 11.680000000000001 132.72 L 12.100000000000001 133.45 C 12.363835743872542 133.92390845674288 12.808838907098279 134.27033437553132 13.332987954106326 134.40985606430326 C 13.857137001114372 134.5493777530752 14.415475995163977 134.47002852363343 14.880000000000003 134.19 L 21.42 130.42 C 22.39418156856132 129.85408977795538 22.7291277090391 128.60809013537803 22.17 127.63 Z M 50.34 111.36 L 49.93000000000001 110.64 C 49.667953267057506 110.16160072969464 49.22187809441004 109.81098785800417 48.69511182220688 109.66938402139041 C 48.168345550003735 109.52778018477666 47.606596893686714 109.6074726723369 47.14000000000001 109.89 L 27 121.51 C 26.029444341893928 122.07931102127219 25.699174844167757 123.32451628972628 26.26 124.30000000000001 L 26.680000000000003 125.02000000000001 C 26.942113503860085 125.49560201079663 27.386357475641752 125.84417195620942 27.910659946610366 125.98562046456428 C 28.43496241757898 126.12706897291912 28.994243623450668 126.04923423730489 29.460000000000004 125.77000000000001 L 49.6 114.15 C 50.07670749438453 113.88622261662765 50.42517278465949 113.43938452501187 50.564847481715304 112.91277316719331 C 50.70452217877113 112.38616180937474 50.62331603534603 111.8253606851647 50.34 111.36 Z M 155.28 49.81 L 155.7 50.54 C 155.96383574387252 51.0139084567429 156.40883890709827 51.36033437553134 156.93298795410632 51.49985606430326 C 157.45713700111438 51.63937775307519 158.01547599516397 51.56002852363343 158.48 51.28 L 165 47.51 C 165.47839927030535 47.2479532670575 165.82901214199583 46.80187809441003 165.97061597860957 46.275111822206874 C 166.11221981522334 45.74834555000373 166.0325273276631 45.186596893686705 165.75 44.72 L 165.33 44 C 165.0679532670575 43.52160072969465 164.62187809441005 43.17098785800417 164.0951118222069 43.02938402139042 C 163.56834555000376 42.887780184776666 163.00659689368672 42.9674726723369 162.54000000000002 43.25 L 156 47 C 155.52100935910335 47.267078561083494 155.172705142854 47.71913104644181 155.0365824483511 48.250387673598865 C 154.90045975384825 48.78164430075592 154.98846246814725 49.34549073273161 155.28 49.81 Z M 127.1 66.08 L 127.52 66.81 C 127.78377738337235 67.28670749438453 128.23061547498813 67.63517278465949 128.7572268328067 67.7748474817153 C 129.28383819062526 67.91452217877112 129.84463931483532 67.83331603534603 130.31 67.55 L 150.43 55.93 C 150.90560201079663 55.667886496139914 151.25417195620943 55.223642524358254 151.39562046456427 54.69934005338964 C 151.53706897291912 54.17503758242103 151.45923423730488 53.615756376549335 151.18 53.15 L 150.76000000000002 52.42 C 150.49622261662765 51.943292505615474 150.0493845250119 51.59482721534052 149.52277316719332 51.455152518284706 C 148.99616180937477 51.31547782122888 148.4353606851647 51.39668396465398 147.97000000000003 51.68 L 127.85 63.3 C 127.37439798920337 63.56211350386008 127.02582804379058 64.00635747564175 126.88437953543574 64.53065994661036 C 126.74293102708089 65.05496241757898 126.82076576269512 65.61424362345066 127.1 66.08 Z M 16.42 115.48 L 16.130000000000003 114.7 C 15.954225105864792 114.18574626915246 15.5767431071279 113.76516706725201 15.084409368725417 113.5350340554317 C 14.592075630322935 113.30490104361138 14.027288267385952 113.28503249790948 13.520000000000003 113.48 L 6.430000000000003 116.06 C 5.915746269152467 116.23577489413522 5.495167067252013 116.6132568928721 5.265034055431696 117.10559063127458 C 5.034901043611379 117.59792436967707 5.015032497909484 118.16271173261406 5.2100000000000035 118.67 L 5.490000000000004 119.46000000000001 C 5.879390209897988 120.51782257288463 7.04977948563975 121.06281299899338 8.110000000000003 120.68 L 15.200000000000003 118.10000000000001 C 15.716721556185007 117.92442334661783 16.13925389910372 117.5453184481889 16.369624359831256 117.05058844236417 C 16.599994820558795 116.55585843653947 16.61819325930335 115.98847591860958 16.42 115.48 Z M 47 104.36 L 46.71 103.57 C 46.53422510586479 103.05574626915245 46.1567431071279 102.635167067252 45.664409368725416 102.40503405543168 C 45.17207563032294 102.17490104361137 44.60728826738595 102.15503249790947 44.1 102.35 L 22.26 110.35 C 21.750549966380344 110.51837109771272 21.33011701243642 110.8843807327579 21.093177092355823 111.36578247514387 C 20.856237172275225 111.84718421752986 20.82266333692933 112.40360107501002 21 112.91 L 21.29 113.7 C 21.46577489413521 114.21425373084755 21.843256892872102 114.634832932748 22.335590631274584 114.86496594456831 C 22.827924369677067 115.09509895638863 23.39271173261405 115.11496750209052 23.9 114.92 L 45.739999999999995 106.92 C 46.78237629966887 106.54690952248204 47.340190563503135 105.41357260548543 47 104.36 Z M 161 62 L 161.28 62.79 C 161.45721069773967 63.30988074083828 161.84042751461442 63.73400237593781 162.33973472312877 63.962851513173554 C 162.83904193164312 64.1917006504093 163.41049081975012 64.20513413009309 163.92 64 L 171.01999999999998 61.41 C 171.53425373084752 61.23422510586479 171.95483293274796 60.8567431071279 172.1849659445683 60.36440936872541 C 172.41509895638862 59.87207563032293 172.4349675020905 59.30728826738595 172.23999999999998 58.8 L 172 58 C 171.82217204235448 57.487569358545045 171.4438390767837 57.06934235084186 170.95174037772472 56.84120463978387 C 170.45964167866575 56.61306692872588 169.89598563773782 56.594586389354944 169.39 56.79 L 162.29 59.37 C 161.75802032367523 59.530512082021424 161.31679826348514 59.905107789617986 161.07209720388502 60.40399444601205 C 160.8273961442849 60.902881102406106 160.80127675533728 61.48108230274137 161 62 Z M 130.45 73.09 L 130.73999999999998 73.88000000000001 C 130.91577489413518 74.39425373084755 131.29325689287208 74.814832932748 131.78559063127457 75.04496594456832 C 132.27792436967707 75.27509895638865 132.84271173261405 75.29496750209053 133.35 75.10000000000001 L 155.19 67.15 C 156.24782257288462 66.76060979010202 156.79281299899338 65.59022051436025 156.41 64.53 L 156.12 63.75 C 155.9442251058648 63.23574626915246 155.5667431071279 62.815167067252005 155.0744093687254 62.585034055431684 C 154.58207563032292 62.35490104361137 154.01728826738594 62.335032497909474 153.51 62.53 L 131.67 70.53 C 131.16787146287905 70.70652087791898 130.756816224447 71.0759108908001 130.5278373169215 71.55639122134541 C 130.29885840939602 72.03687155189071 130.27084537995623 72.58880511749473 130.45 73.09 Z M 12.87 102.52 L 12.729999999999999 101.7 C 12.641747495735668 101.15998944361017 12.342279043239463 100.67727649948966 11.89765953737768 100.35835111553817 C 11.453040031515895 100.03942573158669 10.899804255047979 99.91049429206204 10.359999999999996 100 L 2.9299999999999997 101.32 C 2.3935783031947246 101.40490654920343 1.9147517492113406 101.7043135295613 1.6035576906355695 102.14941533455452 C 1.2923636320597984 102.59451713954775 1.1755639695881706 103.14703614151341 1.2799999999999994 103.67999999999999 L 1.42 104.49999999999999 C 1.5024890953254317 105.03825318388162 1.8008838723542562 105.51960083655578 2.246275808553355 105.83288499506871 C 2.691667744752454 106.14616915358164 3.2455448925436974 106.2643009056538 3.78 106.15999999999998 L 11.22 104.83999999999999 C 11.748091105788342 104.75443343920827 12.219888564062913 104.46086280847062 12.529948986173526 104.02489906344238 C 12.840009408284141 103.58893531841412 12.962483799043177 103.04692371293481 12.87 102.52 Z M 44.87 96.86999999999999 L 44.73 96.05 C 44.64751090467456 95.51174681611836 44.34911612764574 95.0303991634442 43.90372419144664 94.71711500493127 C 43.45833225524754 94.40383084641834 42.9044551074563 94.28569909434619 42.37 94.39 L 19.479999999999997 98.39 C 18.943578303194723 98.47490654920344 18.464751749211338 98.77431352956131 18.153557690635566 99.21941533455453 C 17.842363632059797 99.66451713954775 17.72556396958817 100.21703614151342 17.83 100.75 L 17.97 101.58 C 18.05470305505399 102.11853371528939 18.355569128394986 102.59915371682636 18.80297363628149 102.91063786788659 C 19.250378144167993 103.2221220189468 19.80554467829501 103.33747408590023 20.34 103.23 L 43.22 99.23 C 43.76373791939083 99.15485635860843 44.252693396636055 98.85953964949097 44.57227477597516 98.41326032686358 C 44.89185615531427 97.96698100423617 45.01397083276341 97.40896897662068 44.91 96.87 Z M 164.53 74.86999999999999 L 164.68 75.69999999999999 C 164.76490654920343 76.23642169680527 165.0643135295613 76.71524825078866 165.50941533455455 77.02644230936443 C 165.95451713954776 77.3376363679402 166.50703614151342 77.45443603041183 167.04000000000002 77.35 L 174.48000000000002 76.03999999999999 C 175.01642169680528 75.95509345079655 175.49524825078868 75.6556864704387 175.80644230936446 75.21058466544547 C 176.11763636794024 74.76548286045224 176.23443603041184 74.21296385848657 176.13000000000002 73.67999999999999 L 176 72.9 C 175.91509345079658 72.36357830319473 175.6156864704387 71.88475174921133 175.17058466544546 71.57355769063557 C 174.72548286045225 71.26236363205979 174.17296385848658 71.14556396958817 173.64 71.25 L 166.20999999999998 72.56 C 165.6754113065785 72.64730869496513 165.19909854021375 72.947721091993 164.88999018597735 73.39253555296733 C 164.58088183174098 73.83735001394166 164.46541646998887 74.38852077688678 164.57 74.92 Z M 132.53 80.52 L 132.68 81.35 C 132.75351536108082 81.88723783497636 133.04202111280802 82.37159974496595 133.47940955730735 82.6920998982629 C 133.9167980018067 83.01260005155983 134.46557689083562 83.14176568005531 135 83.05 L 157.88 79.05 C 158.98841153808962 78.84698971099033 159.72801215597397 77.7910538890711 159.54 76.67999999999999 L 159.39 75.86 C 159.30509345079656 75.32357830319472 159.0056864704387 74.84475174921133 158.56058466544545 74.53355769063556 C 158.11548286045223 74.22236363205978 157.56296385848657 74.10556396958816 157.02999999999997 74.21 L 134.14 78.21 C 133.61091879763677 78.30442449750996 133.1421041667408 78.60781314399385 132.83922708369565 79.051782035911 C 132.53635000065046 79.49575092782817 132.42490073899324 80.04293544061477 132.53 80.57 Z M 11.63 89.14 L 11.63 88.3 C 11.63 87.1954305003384 10.734569499661587 86.3 9.63 86.3 L 2 86.3 C 0.8954305003384131 86.3 0 87.1954305003384 0 88.3 L 0 89.14 C 0 90.2445694996616 0.8954305003384131 91.14 2 91.14 L 9.59 91.14 C 10.12732923554516 91.15074874542809 10.646373887453795 90.94478981165285 11.030142861860277 90.56854571909749 C 11.413911836266761 90.1923016265421 11.63010749831272 89.67743672310695 11.63 89.14 Z M 44.160000000000004 89.14 L 44.160000000000004 88.3 C 44.160000000000004 87.1954305003384 43.26456949966159 86.3 42.160000000000004 86.3 L 18.89 86.3 C 17.785430500338414 86.3 16.89 87.1954305003384 16.89 88.3 L 16.89 89.14 C 16.89 90.2445694996616 17.785430500338414 91.14 18.89 91.14 L 42.13 91.14 C 42.66561170177738 91.1480350829149 43.18206064868023 90.94087392752569 43.5636470391798 90.56492674476749 C 43.94523342967936 90.1889795620093 44.16006026653747 89.67567196492467 44.16 89.14 Z M 165.82 88.3 L 165.82 89.14 C 165.82 90.2445694996616 166.7154305003384 91.14 167.82 91.14 L 175.37 91.14 C 176.47456949966158 91.14 177.37 90.2445694996616 177.37 89.14 L 177.37 88.3 C 177.37 87.1954305003384 176.47456949966158 86.3 175.37 86.3 L 167.82 86.3 C 166.7154305003384 86.3 165.82 87.1954305003384 165.82 88.3 Z M 133.28 88.3 L 133.28 89.14 C 133.28 90.2445694996616 134.17543050033842 91.14 135.28 91.14 L 158.52 91.14 C 159.6245694996616 91.14 160.52 90.2445694996616 160.52 89.14 L 160.52 88.3 C 160.52 87.1954305003384 159.6245694996616 86.3 158.52 86.3 L 135.32 86.3 C 134.78267076445485 86.28925125457191 134.2636261125462 86.49521018834714 133.87985713813973 86.87145428090251 C 133.49608816373325 87.2476983734579 133.27989250168727 87.76256327689305 133.28 88.3 Z M 12.73 75.75 L 12.870000000000001 74.92 C 12.97443603041183 74.38703614151342 12.857636367940202 73.83451713954776 12.546442309364432 73.38941533455453 C 12.235248250788661 72.94431352956131 11.756421696805276 72.64490654920344 11.220000000000002 72.56 L 3.78 71.25 C 3.2470361415134166 71.14556396958817 2.694517139547752 71.2623636320598 2.249415334554528 71.57355769063557 C 1.8043135295613038 71.88475174921135 1.5049065492034366 72.36357830319473 1.4200000000000004 72.9 L 1.2799999999999998 73.73 C 1.175563969588171 74.26296385848659 1.2923636320597982 74.81548286045225 1.603557690635569 75.26058466544548 C 1.91475174921134 75.70568647043869 2.393578303194724 76.00509345079656 2.9299999999999993 76.09 L 10.36 77.4 C 10.894455321704989 77.50747408590023 11.449621855832007 77.39212201894681 11.89702636371851 77.0806378678866 C 12.344430871605013 76.76915371682637 12.645296944946008 76.28853371528939 12.73 75.75 Z M 44.730000000000004 81.4 L 44.870000000000005 80.57000000000001 C 44.97443603041183 80.03703614151343 44.85763636794021 79.48451713954776 44.54644230936444 79.03941533455453 C 44.235248250788665 78.59431352956132 43.75642169680528 78.29490654920345 43.220000000000006 78.21000000000001 L 20.340000000000007 74.21000000000001 C 19.814468029742116 74.1110515837779 19.271197943378706 74.22668676547669 18.83151753989779 74.53108089096347 C 18.391837136416875 74.83547501645026 18.09237153594688 75.30327223332843 18 75.83 L 17.86 76.64999999999999 C 17.758725345351465 77.18295486194633 17.878295624257685 77.73418662943368 18.19128961277856 78.17728052884577 C 18.50428360129944 78.62037442825786 18.98384669491159 78.91731339897423 19.52 79 L 42.41 83 C 42.93560593952978 83.10529525165359 43.48148087319381 82.99518906831982 43.92517331201434 82.69438063522115 C 44.368865750834864 82.3935722021225 44.67323338231636 81.92724274806947 44.77 81.4 Z M 164.73000000000002 101.7 L 164.58 102.52 C 164.4756990943462 103.05445510745629 164.59383084641837 103.60833225524755 164.90711500493128 104.05372419144663 C 165.2203991634442 104.49911612764573 165.70174681611837 104.79751090467457 166.24 104.88 L 173.67000000000002 106.19999999999999 C 174.2044551074563 106.3043009056538 174.75833225524758 106.18616915358164 175.20372419144667 105.87288499506872 C 175.64911612764578 105.5596008365558 175.9475109046746 105.07825318388164 176.03000000000003 104.53999999999999 L 176.18000000000004 103.72 C 176.28443603041185 103.18703614151342 176.16763636794025 102.63451713954775 175.85644230936447 102.18941533455452 C 175.5452482507887 101.7443135295613 175.0664216968053 101.44490654920344 174.53000000000003 101.36 L 167.08 100 C 166.5395128789188 99.89611373106708 165.9801020695363 100.01955157486519 165.53352119477506 100.34124118804066 C 165.08694032001384 100.6629308012161 164.79266370368947 101.15443728949496 164.72 101.7 Z M 132.73000000000002 96.05 L 132.58 96.86999999999999 C 132.4755639695882 97.40296385848657 132.5923636320598 97.95548286045224 132.90355769063558 98.40058466544546 C 133.21475174921136 98.8456864704387 133.69357830319476 99.14509345079655 134.23000000000002 99.22999999999999 L 157.12 103.22999999999999 C 157.6529638584866 103.33443603041182 158.20548286045226 103.2176363679402 158.65058466544548 102.90644230936442 C 159.09568647043872 102.59524825078866 159.3950934507966 102.11642169680526 159.48000000000002 101.57999999999998 L 159.63000000000002 100.74999999999999 C 159.73430090565384 100.21554489254369 159.61616915358167 99.66166774475244 159.30288499506875 99.21627580855335 C 158.98960083655584 98.77088387235425 158.50825318388166 98.47248909532541 157.97000000000003 98.38999999999999 L 135.09000000000003 94.38999999999999 C 134.54815914078904 94.2702603445812 133.98092633932598 94.38102073033683 133.5239310875477 94.695797542765 C 133.06693583576944 95.0105743551932 132.7612625724634 95.50106876923702 132.68 96.05 Z M 16.13 62.75 L 16.419999999999998 61.96 C 16.61496750209052 61.452711732614056 16.59509895638862 60.887924369677066 16.364965944568304 60.39559063127459 C 16.134832932747987 59.9032568928721 15.714253730847535 59.52577489413521 15.199999999999998 59.35 L 8.11 56.77 C 7.600215073669167 56.57223506327143 7.031687924623358 56.591816647938465 6.536718034546832 56.82418800854691 C 6.041748144470306 57.05655936915536 5.663502138285182 57.48145525812727 5.49 58 L 5.21 58.79 C 5.0150324979094805 59.297288267385944 5.0349010436113755 59.862075630322934 5.265034055431693 60.35440936872541 C 5.49516706725201 60.8467431071279 5.9157462691524625 61.22422510586479 6.429999999999999 61.4 L 13.52 64 C 14.031220342409949 64.19369324387547 14.599446182079372 64.16967818804255 15.092500507246655 63.93354105913102 C 15.585554832413937 63.69740393021949 15.960457109207862 63.26972927510252 16.13 62.75 Z M 46.71 73.88 L 47 73.08999999999999 C 47.19496750209052 72.58271173261404 47.175098956388624 72.01792436967706 46.94496594456831 71.52559063127457 C 46.71483293274799 71.03325689287209 46.29425373084754 70.6557748941352 45.78 70.47999999999999 L 23.94 62.47999999999999 C 23.432711732614052 62.28503249790947 22.86792436967707 62.304901043611366 22.375590631274587 62.53503405543168 C 21.883256892872105 62.765167067252 21.50577489413521 63.18574626915245 21.330000000000002 63.69999999999999 L 21.040000000000003 64.47999999999999 C 20.657187001006626 65.54022051436024 21.202177427115384 66.71060979010201 22.26 67.1 L 44.1 75.09 C 44.605985637737845 75.28541361064505 45.16964167866575 75.26693307127411 45.66174037772472 75.03879536021613 C 46.15383907678369 74.81065764915813 46.532172042354496 74.39243064145495 46.71 73.88 Z M 161.31 114.69999999999999 L 161.03 115.47999999999999 C 160.831367719217 115.98717088085517 160.84818006036647 116.55341617517111 161.0765526502794 117.0479088905198 C 161.30492524019235 117.5424016058685 161.7251005392464 117.9223609539766 162.24 118.1 L 169.34 120.67999999999999 C 169.84728826738595 120.87496750209051 170.41207563032293 120.85509895638863 170.90440936872542 120.6249659445683 C 171.39674310712792 120.39483293274799 171.77422510586482 119.97425373084754 171.95000000000002 119.46 L 172.24 118.66999999999999 C 172.43496750209053 118.16271173261404 172.41509895638865 117.59792436967706 172.18496594456832 117.10559063127457 C 171.954832932748 116.61325689287209 171.53425373084755 116.2357748941352 171.02 116.05999999999999 L 163.93 113.47999999999999 C 163.42152408139043 113.28180674069664 162.85414156346053 113.3000051794412 162.35941155763584 113.53037564016874 C 161.86468155181112 113.76074610089628 161.48557665338217 114.183278443815 161.31 114.7 Z M 130.74 103.57 L 130.45000000000002 104.36 C 130.2550324979095 104.86728826738594 130.27490104361138 105.43207563032293 130.5050340554317 105.92440936872542 C 130.73516706725204 106.4167431071279 131.15574626915247 106.79422510586478 131.67000000000002 106.97 L 153.51000000000002 114.97 C 154.01728826738596 115.16496750209052 154.58207563032295 115.14509895638864 155.07440936872544 114.91496594456831 C 155.56674310712793 114.684832932748 155.94422510586483 114.26425373084754 156.12000000000003 113.75 L 156.41000000000003 112.96 C 156.60496750209055 112.45271173261405 156.58509895638866 111.88792436967707 156.35496594456833 111.39559063127457 C 156.124832932748 110.9032568928721 155.70425373084757 110.52577489413521 155.19000000000003 110.35 L 133.35000000000002 102.35 C 132.84271173261408 102.15503249790947 132.2779243696771 102.17490104361136 131.7855906312746 102.40503405543168 C 131.2932568928721 102.635167067252 130.9157748941352 103.05574626915245 130.74 103.57 Z M 21.74000000000001 50.56999999999999 L 22.16000000000001 49.839999999999996 C 22.460081230905963 49.37066000563086 22.55081600456064 48.797431002330335 22.410353477440076 48.25835860094871 C 22.269890950319507 47.71928619956709 21.910960451200868 47.263223499735666 21.42 47 L 14.880000000000003 43.22 C 14.410538884471977 42.94309517591331 13.848401694162028 42.86978303268049 13.323625026244187 43.01702252943441 C 12.798848358326346 43.16426202618834 12.356895007851975 43.51929741467719 12.099999999999998 44 L 11.68 44.72 C 11.396683964653976 45.185360685164696 11.31547782122888 45.74616180937474 11.4551525182847 46.27277316719331 C 11.59482721534052 46.79938452501187 11.943292505615473 47.246222616627634 12.419999999999998 47.51 L 19 51.28 C 19.461935719544925 51.55029331119649 20.01293330644339 51.62416568908504 20.529752648659876 51.48509430245224 C 21.046571990876362 51.34602291581944 21.486089677998304 51.00561188237631 21.75 50.54 Z M 49.93 66.81 L 50.339999999999996 66.08 C 50.62002852363342 65.61547599516398 50.69937775307518 65.05713700111437 50.559856064303254 64.53298795410632 C 50.42033437553133 64.00883890709828 50.07390845674289 63.56383574387254 49.599999999999994 63.3 L 29.47 51.68 C 29.005475995163973 51.399971476366574 28.44713700111437 51.32062224692481 27.922987954106322 51.46014393569674 C 27.398838907098277 51.59966562446866 26.95383574387254 51.946091543257104 26.689999999999998 52.42 L 26.269999999999996 53.15 C 25.98916836346566 53.61329281905219 25.908301153625526 54.17069439671539 26.04589773122696 54.69469232237565 C 26.1834943088284 55.21869024803591 26.527781712968675 55.66445050620066 27 55.93 L 47.14 67.55 C 47.6053606851647 67.83331603534602 48.16616180937474 67.91452217877112 48.6927731671933 67.7748474817153 C 49.21938452501187 67.63517278465947 49.666222616627635 67.28670749438453 49.93 66.81 Z M 155.7 126.91 L 155.28 127.63 C 154.9974726723369 128.0965968936867 154.91778018477666 128.65834555000373 155.05938402139043 129.18511182220686 C 155.20098785800417 129.71187809441003 155.55160072969466 130.15795326705748 156.03 130.42 L 162.56 134.19 C 163.02536068516469 134.47331603534602 163.58616180937474 134.55452217877112 164.1127731671933 134.4148474817153 C 164.63938452501188 134.27517278465947 165.08622261662762 133.92670749438452 165.35 133.45 L 165.76999999999998 132.72 C 166.04923423730486 132.25424362345066 166.1270689729191 131.69496241757898 165.98562046456425 131.17065994661036 C 165.8441719562094 130.64635747564174 165.4956020107966 130.2021135038601 165.01999999999998 129.94 L 158.48 126.16 C 158.01424362345065 125.88076576269512 157.45496241757897 125.80293102708089 156.93065994661035 125.94437953543573 C 156.40635747564173 126.08582804379058 155.96211350386008 126.43439798920338 155.7 126.91 Z M 127.51999999999998 110.64 L 127.09999999999998 111.36 C 126.81747267233688 111.82659689368671 126.73778018477664 112.38834555000373 126.8793840213904 112.91511182220688 C 127.02098785800415 113.44187809441003 127.37160072969462 113.88795326705751 127.84999999999998 114.15 L 148 125.77 C 148.4665968936867 126.05252732766309 149.02834555000373 126.13221981522332 149.55511182220687 125.99061597860958 C 150.08187809441003 125.84901214199583 150.52795326705748 125.49839927030536 150.79 125.02 L 151.20999999999998 124.3 C 151.49252732766308 123.83340310631328 151.57221981522332 123.27165444999626 151.43061597860958 122.74488817779311 C 151.2890121419958 122.21812190558997 150.93839927030533 121.77204673294248 150.45999999999998 121.50999999999999 L 130.33999999999997 109.88999999999999 C 129.8709624135457 109.59746282369551 129.30176466675434 109.51210018583247 128.76754765388728 109.65417917861626 C 128.23333064102025 109.79625817140005 127.78174219361007 110.15310649921031 127.52 110.64 Z M 29.4 39.49 L 29.93 38.85 C 30.28076300943139 38.44147155519144 30.45198213724875 37.908766466062254 30.404930214139718 37.372374542619326 C 30.35787829103069 36.83598261917639 30.096530591309612 36.3412219886032 29.68 36 L 23.9 31.12 C 23.49046386840776 30.762813845087177 22.953214184240743 30.58765099706213 22.41184741992278 30.634808380713523 C 21.870480655604815 30.68196576436491 21.371609034603427 30.94738308148128 21.029999999999998 31.37 L 20.49 32.01 C 20.129571430809023 32.420017157382425 19.952411113280903 32.95954880089163 19.999622001143386 33.503418229067414 C 20.046832889005866 34.047287657243196 20.31431144977756 34.54822217589999 20.74 34.89 L 26.52 39.74 C 27.38537599818055 40.46292268287061 28.67213679521248 40.351224697017145 29.4 39.49 Z M 54.32 60.4 L 54.86 59.76 C 55.217186154912824 59.35046386840776 55.39234900293787 58.81321418424074 55.345191619286474 58.27184741992278 C 55.298034235635086 57.730480655604815 55.03261691851872 57.23160903460343 54.61 56.89 L 36.81 42 C 35.94462400181945 41.27707731712939 34.65786320478752 41.38877530298286 33.93 42.25 L 33.4 42.89 C 33.03957143080902 43.30001715738243 32.862411113280906 43.839548800891635 32.90962200114338 44.383418229067416 C 32.95683288900587 44.9272876572432 33.22431144977756 45.42822217589999 33.65 45.77 L 51.45 60.7 C 51.86595031007648 61.05154901874708 52.40727543872638 61.218268968975146 52.94893548280549 61.16164945217245 C 53.49059552688459 61.10502993536976 53.98574137183351 60.82996807152509 54.32 60.4 Z M 148.05 138 L 147.51000000000002 138.64 C 147.1528138450872 139.04953613159222 146.97765099706214 139.58678581575924 147.02480838071355 140.1281525800772 C 147.07196576436493 140.66951934439518 147.3373830814813 141.16839096539655 147.76000000000002 141.51 L 153.55 146.35999999999999 C 153.95953613159224 146.7171861549128 154.49678581575927 146.89234900293786 155.03815258007722 146.84519161928645 C 155.5795193443952 146.79803423563507 156.07839096539658 146.5326169185187 156.42000000000002 146.10999999999999 L 156.96 145.47 C 157.31718615491283 145.06046386840777 157.49234900293789 144.52321418424074 157.44519161928648 143.9818474199228 C 157.3980342356351 143.4404806556048 157.13261691851872 142.94160903460343 156.71 142.6 L 150.92000000000002 137.75 C 150.51046386840778 137.39281384508718 149.97321418424076 137.21765099706212 149.4318474199228 137.26480838071353 C 148.89048065560482 137.3119657643649 148.39160903460345 137.5773830814813 148.05 138 Z M 123.13 117 L 122.58999999999999 117.64 C 122.22957143080902 118.05001715738243 122.0524111132809 118.58954880089163 122.09962200114337 119.13341822906742 C 122.14683288900586 119.6772876572432 122.41431144977756 120.17822217589999 122.83999999999999 120.52 L 140.64 135.45 C 141.04953613159222 135.8071861549128 141.58678581575924 135.98234900293787 142.1281525800772 135.93519161928646 C 142.66951934439518 135.88803423563508 143.16839096539655 135.6226169185187 143.51 135.2 L 144.04999999999998 134.56 C 144.4071861549128 134.15046386840777 144.58234900293786 133.61321418424075 144.53519161928645 133.0718474199228 C 144.48803423563507 132.5304806556048 144.2226169185187 132.03160903460343 143.79999999999998 131.69 L 126 116.79 C 125.59562750631933 116.4281755185289 125.06159417757782 116.24618522243678 124.52042315382126 116.28578310222383 C 123.9792521300647 116.3253809820109 123.47739762543917 116.5831679488372 123.13 117 Z M 38.85 29.93 L 39.49 29.4 C 40.351224697017145 28.67213679521248 40.46292268287061 27.38537599818055 39.74 26.52 L 34.89 20.74 C 34.54807019236602 20.31122060638815 34.04506775576801 20.041662863647858 33.49868529885555 19.994397945229824 C 32.952302841943094 19.94713302681179 32.410482679762765 20.126308191803094 32 20.49 L 31.36 21.029999999999998 C 30.93738308148128 21.371609034603427 30.67196576436491 21.870480655604815 30.62480838071352 22.41184741992278 C 30.57765099706213 22.953214184240743 30.752813845087175 23.49046386840776 31.11 23.9 L 36 29.68 C 36.3412219886032 30.096530591309616 36.83598261917639 30.35787829103069 37.372374542619326 30.404930214139718 C 37.908766466062254 30.45198213724875 38.44147155519145 30.28076300943139 38.85 29.93 Z M 59.76 54.86 L 60.4 54.32 C 60.82261691851872 53.97839096539657 61.088034235635085 53.479519344395186 61.13519161928647 52.93815258007722 C 61.18234900293787 52.39678581575926 61.00718615491282 51.85953613159224 60.65 51.45 L 45.72 33.65 C 45.379688900143094 33.222854576386624 44.87950377207567 32.9534545716375 44.33557948717414 32.904350295917226 C 43.7916552022726 32.855246020196944 43.251308818788104 33.030709152375415 42.839999999999996 33.39 L 42.199999999999996 33.93 C 41.354065734672666 34.67233843893627 41.264793396277675 35.957860111824175 42 36.81 L 56.94 54.61 C 57.280521185711926 55.0175409141889 57.7691514160242 55.272912956110375 58.298155102302424 55.319810446028654 C 58.82715878858065 55.366707935946934 59.35309401338071 55.20127964004606 59.76 54.86 Z M 138.6 147.51 L 137.96 148.04999999999998 C 137.5373830814813 148.39160903460342 137.27196576436492 148.8904806556048 137.22480838071354 149.43184741992278 C 137.17765099706213 149.97321418424073 137.35281384508718 150.51046386840775 137.71 150.92 L 142.56 156.70999999999998 C 142.90160903460344 157.1326169185187 143.4004806556048 157.39803423563507 143.9418474199228 157.44519161928645 C 144.48321418424075 157.49234900293786 145.02046386840777 157.3171861549128 145.43 156.95999999999998 L 146.07 156.42 C 146.4926169185187 156.07839096539655 146.75803423563508 155.57951934439518 146.80519161928646 155.0381525800772 C 146.85234900293787 154.49678581575924 146.67718615491282 153.95953613159222 146.32 153.54999999999998 L 141.47 147.76 C 141.12839096539656 147.33738308148128 140.6295193443952 147.0719657643649 140.0881525800772 147.02480838071352 C 139.54678581575925 146.9776509970621 139.00953613159223 147.15281384508717 138.6 147.51 Z M 117.67999999999999 122.58999999999999 L 117.03999999999999 123.13 C 116.61738308148126 123.47160903460343 116.3519657643649 123.97048065560482 116.30480838071351 124.51184741992277 C 116.25765099706211 125.05321418424074 116.43281384508717 125.59046386840775 116.78999999999999 126 L 131.73 143.8 C 132.07160903460343 144.22261691851872 132.5704806556048 144.4880342356351 133.11184741992278 144.53519161928648 C 133.65321418424074 144.5823490029379 134.19046386840776 144.40718615491284 134.6 144.05 L 135.23999999999998 143.51000000000002 C 135.6626169185187 143.16839096539658 135.92803423563507 142.6695193443952 135.97519161928645 142.12815258007723 C 136.02234900293786 141.58678581575927 135.8471861549128 141.04953613159225 135.48999999999998 140.64000000000001 L 120.55999999999997 122.84000000000002 C 120.21822217589997 122.41431144977759 119.71728765724318 122.14683288900589 119.17341822906741 122.09962200114342 C 118.62954880089163 122.05241111328093 118.09001715738243 122.22957143080905 117.68 122.59 Z M 49.81 22.17 L 50.54 21.75 C 51.00561188237631 21.486089677998304 51.34602291581944 21.046571990876362 51.48509430245224 20.529752648659876 C 51.62416568908504 20.01293330644339 51.55029331119649 19.461935719544925 51.28 19 L 47.51 12.46 C 47.246222616627634 11.983292505615474 46.79938452501187 11.63482721534052 46.27277316719331 11.495152518284701 C 45.74616180937474 11.355477821228881 45.185360685164696 11.436683964653977 44.72 11.72 L 44 12.1 C 43.52439798920337 12.362113503860083 43.17582804379058 12.806357475641748 43.03437953543574 13.330659946610362 C 42.8929310270809 13.854962417578976 42.97076576269512 14.414243623450663 43.25 14.88 L 47 21.42 C 47.26186132469011 21.904044869690253 47.711608697235754 22.25879669805907 48.24333209408598 22.400715754157883 C 48.7750554909362 22.542634810256693 49.341762308598135 22.459178584256453 49.81 22.17 Z M 66.08 50.34 L 66.81 49.93000000000001 C 67.28670749438453 49.66622261662764 67.63517278465947 49.219384525011876 67.7748474817153 48.69277316719331 C 67.91452217877112 48.16616180937475 67.83331603534602 47.605360685164705 67.55 47.14000000000001 L 55.93 27 C 55.66616425612746 26.526091543257103 55.22116109290172 26.179665624468665 54.69701204589367 26.04014393569674 C 54.17286299888563 25.900622246924815 53.61452400483602 25.97997147636658 53.15 26.26 L 52.42 26.680000000000003 C 51.946091543257104 26.943835743872544 51.59966562446866 27.388838907098283 51.46014393569674 27.91298795410633 C 51.32062224692481 28.437137001114376 51.399971476366574 28.995475995163982 51.68 29.460000000000004 L 63.3 49.6 C 63.56383574387254 50.0739084567429 64.00883890709828 50.42033437553134 64.53298795410632 50.55985606430326 C 65.05713700111437 50.69937775307519 65.61547599516398 50.62002852363343 66.08 50.34 Z M 127.63 155.28 L 126.91 155.7 C 126.43439798920338 155.96211350386008 126.08582804379058 156.40635747564173 125.94437953543574 156.93065994661035 C 125.80293102708089 157.45496241757897 125.88076576269512 158.01424362345065 126.16 158.48 L 129.94 165.01999999999998 C 130.2021135038601 165.4956020107966 130.64635747564174 165.8441719562094 131.17065994661036 165.98562046456425 C 131.69496241757898 166.1270689729191 132.25424362345066 166.04923423730486 132.72 165.76999999999998 L 133.45 165.35 C 133.92670749438452 165.08622261662762 134.27517278465947 164.63938452501188 134.4148474817153 164.1127731671933 C 134.55452217877112 163.58616180937474 134.47331603534602 163.02536068516469 134.19 162.56 L 130.42 156 C 130.15278682589113 155.5266658185023 129.70442914020455 155.18247905880682 129.17812064233073 155.04665751096843 C 128.6518121444569 154.91083596313 128.09289167921804 154.99507997419957 127.63 155.28 Z M 111.36 127.1 L 110.64 127.52 C 110.16160072969464 127.78204673294249 109.81098785800415 128.22812190558997 109.66938402139041 128.75488817779313 C 109.52778018477666 129.28165444999627 109.6074726723369 129.8434031063133 109.89 130.31 L 121.51 150.43 C 121.7720467329425 150.90839927030538 122.21812190558998 151.25901214199584 122.74488817779313 151.4006159786096 C 123.27165444999628 151.54221981522335 123.8334031063133 151.4625273276631 124.30000000000001 151.18 L 125.02000000000001 150.76000000000002 C 125.49839927030537 150.4979532670575 125.84901214199584 150.05187809441006 125.9906159786096 149.5251118222069 C 126.13221981522334 148.99834555000376 126.0525273276631 148.43659689368673 125.77000000000001 147.97000000000003 L 114.15 127.85000000000002 C 113.88795326705751 127.37160072969466 113.44187809441004 127.02098785800418 112.91511182220688 126.87938402139042 C 112.38834555000373 126.73778018477667 111.82659689368671 126.81747267233689 111.36 127.1 Z M 62 16.42 L 62.79 16.130000000000003 C 63.302430641454954 15.952172042354496 63.720657649158134 15.573839076783688 63.948795360216124 15.081740377724719 C 64.17693307127412 14.589641678665748 64.19541361064505 14.025985637737845 64 13.52 L 61.38 6.43 C 61.20422510586479 5.915746269152463 60.8267431071279 5.4951670672520105 60.33440936872542 5.265034055431693 C 59.84207563032294 5.0349010436113755 59.277288267385956 5.01503249790948 58.77 5.209999999999999 L 58 5.49 C 57.48510053924638 5.667639046023403 57.06492524019235 6.04759839413149 56.83655265027941 6.542091109480186 C 56.60818006036646 7.036583824828881 56.591367719217025 7.602829119144811 56.79 8.11 L 59.37 15.2 C 59.54536155857764 15.71920388572053 59.9260908899074 16.1437059488696 60.4232259732544 16.374316139623723 C 60.920361056601394 16.604926330377843 61.490347114774664 16.621440531560975 62 16.42 Z M 73.09 47 L 73.88000000000001 46.71 C 74.93251683818464 46.32059423370259 75.47628964632915 45.15727699660653 75.1 44.1 L 67.15 22.26 C 66.98279516626653 21.735979644846324 66.60715305857393 21.30395363691416 66.1114477578811 21.065561011390123 C 65.61574245718825 20.827168385866084 65.04373621148976 20.80345510934299 64.53 21 L 63.75 21.29 C 63.235746269152465 21.46577489413521 62.81516706725201 21.843256892872102 62.58503405543169 22.335590631274584 C 62.35490104361138 22.827924369677067 62.33503249790948 23.39271173261405 62.53 23.9 L 70.53 45.739999999999995 C 70.69837109771272 46.24945003361965 71.06438073275791 46.669882987563575 71.54578247514388 46.90682290764418 C 72.02718421752986 47.14376282772477 72.58360107501002 47.17733666307067 73.09 47 Z M 115.48 161 L 114.7 161.28 C 114.18574626915246 161.4557748941352 113.76516706725201 161.8332568928721 113.5350340554317 162.3255906312746 C 113.30490104361137 162.8179243696771 113.28503249790948 163.38271173261407 113.48 163.89000000000001 L 116.06 170.99 C 116.23577489413522 171.50425373084755 116.6132568928721 171.924832932748 117.10559063127458 172.15496594456832 C 117.59792436967707 172.38509895638865 118.16271173261406 172.40496750209053 118.67 172.21 L 119.46000000000001 171.92000000000002 C 119.97425373084755 171.7442251058648 120.394832932748 171.36674310712792 120.62496594456832 170.87440936872542 C 120.85509895638864 170.38207563032293 120.87496750209053 169.81728826738595 120.68 169.31 L 118.10000000000001 162.21 C 117.92236095397661 161.6951005392464 117.54240160586852 161.27492524019235 117.04790889051982 161.0465526502794 C 116.55341617517112 160.81818006036647 115.98717088085519 160.801367719217 115.48 161 Z M 104.36 130.42000000000002 L 103.57 130.71 C 103.05574626915245 130.8857748941352 102.635167067252 131.2632568928721 102.40503405543168 131.7555906312746 C 102.17490104361136 132.2479243696771 102.15503249790947 132.81271173261408 102.35 133.32000000000002 L 110.35 155.16000000000003 C 110.52577489413521 155.67425373084757 110.9032568928721 156.094832932748 111.39559063127457 156.32496594456833 C 111.88792436967707 156.55509895638866 112.45271173261405 156.57496750209054 112.96 156.38000000000002 L 113.75 156.09000000000003 C 114.26425373084754 155.91422510586483 114.684832932748 155.53674310712793 114.91496594456831 155.04440936872544 C 115.14509895638864 154.55207563032295 115.16496750209052 153.98728826738596 114.97 153.48000000000002 L 106.97 131.64000000000001 C 106.78810171849257 131.13121211053343 106.40807989577175 130.71767032693683 105.91644365377232 130.49351433920526 C 105.42480741177287 130.26935835147373 104.86339220471096 130.25366256210424 104.36 130.45 Z M 74.92 12.87 L 75.75 12.729999999999999 C 76.28853371528939 12.645296944946006 76.76915371682637 12.344430871605011 77.0806378678866 11.89702636371851 C 77.39212201894681 11.449621855832007 77.50747408590023 10.894455321704989 77.4 10.36 L 76.09 2.93 C 76.00509345079656 2.393578303194725 75.70568647043869 1.9147517492113395 75.26058466544548 1.6035576906355689 C 74.81548286045225 1.2923636320597982 74.26296385848659 1.175563969588171 73.73 1.2800000000000002 L 72.9 1.4200000000000004 C 72.36357830319473 1.5049065492034364 71.88475174921135 1.804313529561304 71.57355769063557 2.249415334554528 C 71.2623636320598 2.6945171395477523 71.14556396958817 3.2470361415134166 71.25 3.78 L 72.56 11.22 C 72.64490654920344 11.756421696805276 72.94431352956131 12.23524825078866 73.38941533455453 12.54644230936443 C 73.83451713954776 12.857636367940202 74.38703614151342 12.974436030411828 74.92 12.87 Z M 80.57000000000001 44.87 L 81.4 44.73 C 81.93642169680528 44.64509345079656 82.41524825078866 44.34568647043869 82.72644230936444 43.90058466544547 C 83.03763636794021 43.45548286045224 83.15443603041184 42.90296385848658 83.05000000000001 42.37 L 79 19.52 C 78.91529694494601 18.98146628471061 78.61443087160501 18.500846283173637 78.1670263637185 18.189362132113413 C 77.719621855832 17.87787798105319 77.16445532170498 17.76252591409978 76.63 17.87 L 75.81 18.01 C 75.27146628471061 18.094703055053994 74.79084628317364 18.39556912839499 74.47936213211341 18.842973636281492 C 74.1678779810532 19.290378144167995 74.05252591409977 19.845544678295013 74.16 20.380000000000003 L 78.16 43.260000000000005 C 78.24372949387806 43.8071015074482 78.55043192320153 44.29504504588252 79.00712297915321 44.60771734560047 C 79.46381403510487 44.920389645318416 80.02965652884373 45.02983163512178 80.57 44.91 Z M 102.57000000000001 164.53 L 101.75000000000001 164.68 C 101.21174681611836 164.76248909532544 100.7303991634442 165.06088387235425 100.41711500493129 165.50627580855337 C 100.10383084641836 165.95166774475246 99.9856990943462 166.50554489254372 100.09000000000002 167.04000000000002 L 101.41000000000001 174.48000000000002 C 101.49490654920345 175.01642169680528 101.79431352956131 175.49524825078868 102.23941533455454 175.80644230936446 C 102.68451713954776 176.11763636794024 103.23703614151343 176.23443603041184 103.77000000000001 176.13000000000002 L 104.59 175.98000000000002 C 105.12825318388165 175.8975109046746 105.60960083655581 175.59911612764577 105.92288499506873 175.15372419144666 C 106.23616915358166 174.70833225524757 106.35430090565382 174.1544551074563 106.25 173.62 L 104.93 166.19 C 104.83896323329112 165.6483962827434 104.52921435928313 165.16805976698546 104.0734182890291 164.8616740268147 C 103.6176222187751 164.55528828664396 103.05588997568901 164.4498159187121 102.52 164.57 Z M 96.92 132.53 L 96.10000000000001 132.68 C 95.56093815207181 132.7510586578152 95.07404146745374 133.038530505481 94.7514398983648 133.47621216646715 C 94.42883832927586 133.9138938274533 94.29834070592995 134.46405636252229 94.39 135 L 98.39 157.88 C 98.47248909532543 158.41825318388163 98.77088387235426 158.8996008365558 99.21627580855336 159.21288499506872 C 99.66166774475245 159.52616915358163 100.2155448925437 159.6443009056538 100.75 159.54 L 101.58 159.39 C 102.11642169680528 159.30509345079656 102.59524825078867 159.0056864704387 102.90644230936444 158.56058466544545 C 103.21763636794022 158.11548286045223 103.33443603041184 157.56296385848657 103.23 157.02999999999997 L 99.23 134.14 C 99.13557550249004 133.61091879763677 98.83218685600615 133.1421041667408 98.388217964089 132.83922708369565 C 97.94424907217183 132.53635000065046 97.39706455938523 132.42490073899324 96.87 132.53 Z M 88.3 11.63 L 89.14 11.63 C 90.2445694996616 11.63 91.14 10.734569499661587 91.14 9.63 L 91.14 2 C 91.14 0.8954305003384131 90.2445694996616 0 89.14 0 L 88.3 0 C 87.1954305003384 0 86.3 0.8954305003384131 86.3 2 L 86.3 9.59 C 86.28925125457191 10.12732923554516 86.49521018834714 10.646373887453795 86.87145428090251 11.030142861860277 C 87.2476983734579 11.413911836266761 87.76256327689305 11.630107498312718 88.3 11.63 Z M 88.3 44.160000000000004 L 89.14 44.160000000000004 C 90.2445694996616 44.160000000000004 91.14 43.26456949966159 91.14 42.160000000000004 L 91.14 18.89 C 91.14 17.785430500338414 90.2445694996616 16.89 89.14 16.89 L 88.3 16.89 C 87.1954305003384 16.89 86.3 17.785430500338414 86.3 18.89 L 86.3 42.13 C 86.2919649170851 42.66561170177738 86.49912607247431 43.18206064868023 86.87507325523251 43.5636470391798 C 87.2510204379907 43.94523342967936 87.76432803507532 44.16006026653747 88.3 44.16 Z M 89.14 165.82 L 88.3 165.82 C 87.1954305003384 165.82 86.3 166.7154305003384 86.3 167.82 L 86.3 175.37 C 86.3 176.47456949966158 87.1954305003384 177.37 88.3 177.37 L 89.14 177.37 C 90.2445694996616 177.37 91.14 176.47456949966158 91.14 175.37 L 91.14 167.82 C 91.14 166.7154305003384 90.2445694996616 165.82 89.14 165.82 Z M 89.14 133.28 L 88.3 133.28 C 87.1954305003384 133.28 86.3 134.17543050033842 86.3 135.28 L 86.3 158.52 C 86.3 159.6245694996616 87.1954305003384 160.52 88.3 160.52 L 89.14 160.52 C 90.2445694996616 160.52 91.14 159.6245694996616 91.14 158.52 L 91.14 135.32 C 91.15074874542809 134.78267076445485 90.94478981165285 134.2636261125462 90.56854571909749 133.87985713813973 C 90.1923016265421 133.49608816373325 89.67743672310695 133.27989250168727 89.14 133.28 Z" stroke-linecap="round" />
</g>
</g>
</g>
</g>
</g>
<g transform="matrix(1.9211538461538462 0 0 1.9211538461538462 639.9173330115477 517.2043889372893)" id="tagline-0eec4884-cc4d-43ed-b269-d390efa11485-logo"  >
<g style=""  paint-order="stroke"   >
		<g transform="matrix(1 0 0 1 0 0)" id="tagline-0eec4884-cc4d-43ed-b269-d390efa11485-logo-path-0"  >
<path style="stroke: none; stroke-width: 0; stroke-dasharray: none; stroke-linecap: butt; stroke-dashoffset: 0; stroke-linejoin: miter; stroke-miterlimit: 4; fill: rgb(255,255,255); fill-rule: nonzero; opacity: 1;"  paint-order="stroke"  transform=" translate(-59.12499999999999, 51.800000000000004)" d="M 59.2 -11.1 C 36.7 -11.1 18.35 -29.45 18.35 -51.95 C 18.35 -74.15 36.7 -92.5 59.2 -92.5 C 81.55 -92.5 99.9 -74.15 99.9 -51.95 C 99.9 -29.45 81.55 -11.1 59.2 -11.1 Z M 59.2 0.74 C 88.06 0.74 111.74 -22.94 111.74 -51.95 C 111.74 -80.66 88.06 -104.34 59.2 -104.34 C 30.19 -104.34 6.51 -80.66 6.51 -51.95 C 6.51 -22.94 30.19 0.74 59.2 0.74 Z" stroke-linecap="round" />
</g>
</g>
</g>
</svg>